# xmcd CD database file
# Copyright (C) 1993-1998 Ti Kan
#
# Track frame offsets:
#  183
#  10845
#  19180
#  28188
#  37858
#  47500
#  56030
#  65615
#  76450
#  84265
#  95905
#  107545
#
# Disc length: 1534 seconds
#
# Revision: 1
# Processed by: cddbd v1.4b41PL1 Copyright (c) Steve Scherf et al.
# Submitted via: CDWizzard Release:4.35
#
DISCID=8f05fc0c
DTITLE=Allen Toussaint - The Wild Sound of New Orleans Piano
DYEAR=1900
DGENRE=
TTITLE0=Whirlaway
TTITLE1=Up The Creek
TTITLE2=Tim Tam
TTITLE3=Me and You
TTITLE4=Bono
TTITLE5=Java
TTITLE6=Happy Times
TTITLE7=Wham Tousan
TTITLE8=Nowhere to Go
TTITLE9=Nashua
TTITLE10=Po' Boy Walk
TTITLE11=Pelican Parade
EXTD=
EXTT0=
EXTT1=
EXTT2=
EXTT3=
EXTT4=
EXTT5=
EXTT6=
EXTT7=
EXTT8=
EXTT9=
EXTT10=
EXTT11=
PLAYORDER=
